<svg xmlns="http://www.w3.org/2000/svg" xmlns:xlink="http://www.w3.org/1999/xlink" width="67.908" height="67.908" viewBox="0 0 67.908 67.908">
  <defs>
    <filter id="Oval" x="0" y="0" width="67.908" height="67.908" filterUnits="userSpaceOnUse">
      <feOffset dy="3" input="SourceAlpha"/>
      <feGaussianBlur stdDeviation="3" result="blur"/>
      <feFlood flood-opacity="0.161"/>
      <feComposite operator="in" in2="blur"/>
      <feComposite in="SourceGraphic"/>
    </filter>
  </defs>
  <g id="E-mail" transform="translate(9 6)">
    <g transform="matrix(1, 0, 0, 1, -9, -6)" filter="url(#Oval)">
      <circle id="Oval-2" data-name="Oval" cx="24.954" cy="24.954" r="24.954" transform="translate(9 6)" fill="#2f75ec"/>
    </g>
    <path id="Mail" d="M3.092,14.077a3.239,3.239,0,0,1-1.816-.56l.632-.686L7.792,6.45l2.219,1.51.1.037h.035a.439.439,0,0,0,.055,0,.424.424,0,0,0,.055,0,.373.373,0,0,0,.109,0h.035l.074-.037L12.716,6.44l5.854,6.372.618.672a3.4,3.4,0,0,1-1.911.59H3.223ZM.649,12.868h0A3.793,3.793,0,0,1,0,10.69L0,3.375A3.919,3.919,0,0,1,.478,1.468l.741.506L7.012,5.93l-5.74,6.261-.622.676Zm19.192,0h0l-.627-.685L13.479,5.911l5.787-3.937.746-.5a3.741,3.741,0,0,1,.46,1.915v7.3a3.585,3.585,0,0,1-.631,2.173ZM10.2,6.993h0L8.007,5.5a.444.444,0,0,0-.158-.1L1.824,1.3,1.031.759A3.131,3.131,0,0,1,3.063,0c.062,0,.114,0,.16,0H17.314A3.354,3.354,0,0,1,19.42.759l-.8.544L10.2,6.993Z" transform="translate(14.717 17.916)" fill="#fff"/>
  </g>
</svg>
