<svg id="Component_26_2" data-name="Component 26 – 2" xmlns="http://www.w3.org/2000/svg" width="89.081" height="53.33" viewBox="0 0 89.081 53.33">
  <g id="Path_14" data-name="Path 14" transform="translate(-21.677 0.452)">
    <path d="M 54.67258071899414 52.37797546386719 C 43.25088119506836 52.37797546386719 34.69763946533203 49.81744384765625 29.25042915344238 44.76750564575195 C 24.55669021606445 40.41607284545898 22.17675971984863 34.24946212768555 22.17675971984863 26.43898391723633 C 22.17675971984863 18.62850379943848 24.55669021606445 12.46190357208252 29.25042915344238 8.1104736328125 C 34.69763946533203 3.060534000396729 43.25088119506836 0.5000039339065552 54.67258071899414 0.5000039339065552 C 57.8266487121582 0.5000039339065552 60.1220588684082 0.6654039025306702 61.68997955322266 1.005663871765137 C 62.99092864990234 1.287993907928467 63.78805160522461 1.702793955802917 63.99515151977539 2.205223798751831 C 64.487060546875 3.398563861846924 62.0483512878418 5.820633888244629 59.46643829345703 8.384903907775879 C 57.30493927001953 10.53165435791016 54.85503005981445 12.96483421325684 52.90587997436523 15.70579433441162 C 50.61135101318359 18.93241310119629 49.49594879150391 21.9249439239502 49.49594879150391 24.85437393188477 C 49.49594879150391 31.13841438293457 54.71582794189453 37.14156341552734 58.91006851196289 41.96517562866211 C 60.51704025268555 43.81328201293945 62.03488922119141 45.55890274047852 62.99039077758789 47.02737426757812 C 63.95249938964844 48.50601577758789 64.25914764404297 49.5782356262207 63.92784881591797 50.30532455444336 C 63.30120086669922 51.68063354492188 60.18727874755859 52.37797546386719 54.67258071899414 52.37797546386719 Z" stroke="none"/>
    <path d="M 54.67258071899414 0.9999923706054688 C 43.38100814819336 0.9999923706054688 34.942138671875 3.515663146972656 29.59036254882812 8.477134704589844 C 25.00283050537109 12.7301025390625 22.6767578125 18.77334213256836 22.6767578125 26.43898391723633 C 22.6767578125 34.10462188720703 25.00283050537109 40.14786529541016 29.59036254882812 44.40082550048828 C 34.942138671875 49.3622932434082 43.38100814819336 51.87796401977539 54.67258071899414 51.87796401977539 C 61.6239013671875 51.87796401977539 63.16997146606445 50.76276397705078 63.47285842895508 50.09800338745117 C 63.7240104675293 49.54680252075195 63.42068099975586 48.60544586181641 62.5713005065918 47.30006408691406 C 61.63476943969727 45.86073303222656 60.12799835205078 44.12786483764648 58.53276062011719 42.29325485229492 C 54.28385162353516 37.40677261352539 48.99594879150391 31.32539367675781 48.99594879150391 24.85437393188477 C 48.99594879150391 21.81751441955566 50.14160919189453 18.73019409179688 52.4984016418457 15.416015625 C 54.47235107421875 12.64020538330078 56.93836975097656 10.19101333618164 59.11410140991211 8.030132293701172 C 60.58475875854492 6.569515228271484 61.8548698425293 5.308082580566406 62.68320083618164 4.232975006103516 C 63.65459823608398 2.972175598144531 63.57915115356445 2.50799560546875 63.53289031982422 2.395763397216797 C 63.48207092285156 2.272472381591797 63.19132995605469 1.843105316162109 61.58393859863281 1.494285583496094 C 60.05128860473633 1.161674499511719 57.79056167602539 0.9999923706054688 54.67258071899414 0.9999923706054688 M 54.67258071899414 -7.62939453125e-06 C 79.37702178955078 -7.62939453125e-06 49.99594879150391 10.25252532958984 49.99594879150391 24.85437393188477 C 49.99594879150391 39.45622253417969 79.37702178955078 52.87796401977539 54.67258071899414 52.87796401977539 C 29.9681396484375 52.87796401977539 21.6767578125 41.04083251953125 21.6767578125 26.43898391723633 C 21.6767578125 11.83713531494141 29.9681396484375 -7.62939453125e-06 54.67258071899414 -7.62939453125e-06 Z" stroke="none" fill="#000"/>
  </g>
  <g id="Path_13" data-name="Path 13" transform="translate(18.11 0.6)">
    <path d="M 54.67257308959961 52.22980117797852 C 43.2507438659668 52.22980117797852 34.69741439819336 49.67278289794922 29.25017356872559 44.62976455688477 C 24.55659484863281 40.28447341918945 22.17675399780273 34.12661361694336 22.17675399780273 26.32722282409668 C 22.17675399780273 23.17148208618164 22.85417366027832 19.86715316772461 24.13576507568359 16.77146339416504 C 25.41863441467285 13.67270278930664 27.32561492919922 10.73757266998291 29.65054512023926 8.283392906188965 C 32.10585403442383 5.691592693328857 34.96785354614258 3.650552988052368 38.15705490112305 2.216962814331055 C 41.57709503173828 0.679612934589386 45.25925445556641 -0.09988708049058914 49.10125350952148 -0.09988708049058914 C 50.8970832824707 -0.09988708049058914 52.74076461791992 0.07375291734933853 54.58110427856445 0.4162129163742065 C 59.17941284179688 1.271892905235291 61.85292434692383 2.589462995529175 62.7544059753418 4.444222927093506 C 63.92103576660156 6.844512939453125 62.16737365722656 10.19674301147461 60.13680267333984 14.07830333709717 C 58.04253387451172 18.08163261413574 55.6688346862793 22.61909294128418 55.6688346862793 27.54495239257812 C 55.6688346862793 27.65081214904785 55.70779418945312 28.00309371948242 56.20916366577148 28.09182357788086 C 56.31036376953125 28.10973358154297 56.44740295410156 28.12336349487305 56.62810516357422 28.13350296020508 C 56.92367553710938 28.15009307861328 57.35201263427734 28.15816307067871 57.93762588500977 28.15816307067871 C 58.67203521728516 28.15816307067871 59.56896591186523 28.14583206176758 60.5185661315918 28.13278198242188 C 61.58138275146484 28.11817359924316 62.68038558959961 28.10306358337402 63.68573379516602 28.10306358337402 C 65.62532043457031 28.10306358337402 66.40662384033203 28.16628456115723 66.72110748291016 28.21749877929688 L 66.74010467529297 28.42197227478027 L 67.21987915039062 28.38439559936523 C 67.25667572021484 28.3956470489502 67.55841064453125 28.51108932495117 68.08135223388672 29.34864234924316 C 68.51847076416016 30.04873275756836 68.96183776855469 31.02933311462402 69.32978057861328 32.10982131958008 C 69.86150360107422 33.67124176025391 70.70897674560547 36.8245735168457 70.41060638427734 40.40009307861328 C 70.12615203857422 43.80877304077148 68.884765625 46.54396438598633 66.72092437744141 48.52968215942383 C 64.04546356201172 50.98490142822266 59.99181365966797 52.22980117797852 54.67257308959961 52.22980117797852 Z" stroke="none"/>
    <path d="M 49.10124588012695 0.4001121520996094 C 45.33038330078125 0.4001121520996094 41.71719360351562 1.164821624755859 38.36204528808594 2.673011779785156 C 35.23261260986328 4.079734802246094 32.42376708984375 6.083034515380859 30.01352691650391 8.627262115478516 C 27.73021697998047 11.03751373291016 25.85746765136719 13.91986465454102 24.59774780273438 16.96271133422852 C 23.34102630615234 19.99832344055176 22.6767578125 23.23651313781738 22.6767578125 26.32722282409668 C 22.6767578125 33.98164367675781 25.00265502929688 40.01605224609375 29.58985137939453 44.26285171508789 C 34.94169616699219 49.21755218505859 43.38074493408203 51.72979354858398 54.67257308959961 51.72979354858398 C 59.17984390258789 51.72979354858398 62.7574348449707 50.8203239440918 65.30593872070312 49.02666473388672 C 67.40128326416016 47.55194473266602 68.81124877929688 45.47030258178711 69.49664306640625 42.83957290649414 C 70.44378662109375 39.2042236328125 69.76493835449219 35.53243255615234 69.27598571777344 33.66728210449219 C 68.94414520263672 32.40145111083984 68.4971923828125 31.18879318237305 68.0174560546875 30.25268363952637 C 67.59011840820312 29.41880226135254 67.25452423095703 29.02973747253418 67.09947204589844 28.89531517028809 L 66.28781127929688 28.95866203308105 L 66.26083374023438 28.6683406829834 C 65.83800506591797 28.63448905944824 65.07205200195312 28.60306358337402 63.68573379516602 28.60306358337402 C 62.68382263183594 28.60306358337402 61.58656311035156 28.61814308166504 60.52543258666992 28.63273239135742 C 59.57407379150391 28.64581298828125 58.67547607421875 28.65816307067871 57.93762588500977 28.65816307067871 C 57.33431243896484 28.65816307067871 56.90930557250977 28.65008354187012 56.60008239746094 28.63272285461426 C 56.39656448364258 28.62130355834961 56.24465560913086 28.60587310791016 56.12202453613281 28.58417320251465 C 55.41847610473633 28.45966339111328 55.1688346862793 27.946533203125 55.1688346862793 27.54495239257812 C 55.1688346862793 22.49620246887207 57.57279586791992 17.90089225769043 59.69376373291016 13.84654235839844 C 61.66159439086914 10.08490371704102 63.361083984375 6.836231231689453 62.30470275878906 4.662792205810547 C 61.47741317749023 2.960681915283203 58.92108535766602 1.732402801513672 54.4896240234375 0.9077720642089844 C 52.67940521240234 0.5709114074707031 50.86649322509766 0.4001121520996094 49.10124588012695 0.4001121520996094 M 49.10124969482422 -0.5998878479003906 C 50.8987922668457 -0.5998878479003906 52.75825881958008 -0.4315757751464844 54.67257308959961 -0.075347900390625 C 73.91436767578125 3.505271911621094 56.1688346862793 14.34367370605469 56.1688346862793 27.54495239257812 C 56.1688346862793 27.63224983215332 56.87868881225586 27.65815925598145 57.9376220703125 27.65815925598145 C 59.48243713378906 27.65815925598145 61.7708625793457 27.60306739807129 63.68573379516602 27.60306167602539 C 65.61918640136719 27.60305786132812 67.17138671875 27.65922737121582 67.19236755371094 27.88502311706543 C 67.20262145996094 27.88422012329102 67.21340942382812 27.88381385803223 67.22386169433594 27.88380241394043 C 69.8475341796875 27.8809871673584 78.63925170898438 52.72979354858398 54.67257308959961 52.72979354858398 C 29.96813201904297 52.72979354858398 21.6767578125 40.90896224975586 21.6767578125 26.32722282409668 C 21.6767578125 13.19618225097656 32.83074188232422 -0.5998878479003906 49.10124969482422 -0.5998878479003906 Z" stroke="none" fill="#000"/>
  </g>
</svg>
